<svg width="64" height="64" viewBox="0 0 64 64" fill="none" xmlns="http://www.w3.org/2000/svg">
  <rect width="64" height="64" rx="12" fill="#4CAF50"></rect>
  <path d="M16 20C16 17.7909 17.7909 16 20 16H44C46.2091 16 48 17.7909 48 20V32C48 41.9411 39.9411 50 30 50C20.0589 50 12 41.9411 12 32V20H16Z" fill="white"></path>
  <path d="M32 24C30.3431 24 29 25.3431 29 27H27C27 24.7909 28.7909 23 31 23V21H33V23C35.2091 23 37 24.7909 37 27C37 29.2091 35.2091 31 33 31H32C30.8954 31 30 31.8954 30 33C30 34.1046 30.8954 35 32 35C33.1046 35 34 34.1046 34 33H36C36 35.2091 34.2091 37 32 37V39H30V37C27.7909 37 26 35.2091 26 33C26 30.7909 27.7909 29 30 29H31C32.1046 29 33 28.1046 33 27C33 25.8954 32.1046 25 31 25H30C30 25 30 24 32 24Z" fill="#4CAF50"></path>
</svg>
